<svg xmlns="http://www.w3.org/2000/svg" viewBox="0 0 24 24" fill="none">
  <path fill="#4DB5FF" fill-rule="evenodd" d="M 6.84 3.19 Q 7.50 2.81 12.28 2.91 Q 17.06 3.00 17.44 3.28 Q 17.81 3.56 19.88 7.13 Q 21.94 10.69 22.13 11.16 Q 22.31 11.63 22.22 12.28 Q 22.13 12.94 19.78 16.88 Q 17.44 20.81 16.97 21.00 Q 16.50 21.19 11.91 21.19 Q 7.31 21.19 6.75 20.81 Q 6.19 20.44 4.22 17.06 Q 2.25 13.69 1.97 13.03 Q 1.69 12.38 1.78 11.72 Q 1.88 11.06 4.03 7.31 Q 6.19 3.56 6.84 3.19 Z M 12.09 4.13 Q 8.25 4.13 7.59 4.50 Q 6.94 4.88 5.25 7.78 Q 3.56 10.69 3.38 11.16 Q 3.19 11.63 3.38 12.47 Q 3.56 13.31 5.25 16.22 Q 6.94 19.13 7.50 19.50 Q 8.06 19.88 12.00 19.88 Q 15.94 19.88 16.31 19.69 Q 16.69 19.50 18.66 16.22 Q 20.63 12.94 20.72 12.28 Q 20.81 11.63 20.63 11.16 Q 20.44 10.69 18.56 7.59 Q 16.69 4.50 16.31 4.31 Q 15.94 4.13 12.09 4.13 Z M 8.06 6.56 Q 8.44 6.00 9.00 6.00 Q 9.56 6.00 9.94 6.38 L 11.06 7.50 Q 11.44 7.88 11.44 8.44 Q 11.44 8.81 11.25 9.19 L 14.81 12.75 Q 15.19 12.56 15.56 12.56 Q 16.13 12.56 16.50 12.94 L 17.63 14.06 Q 18.00 14.44 18.00 15.00 Q 18.00 15.56 17.44 15.94 L 16.31 14.81 Q 16.13 14.63 15.94 14.63 Q 15.75 14.63 15.56 14.81 L 14.81 15.56 Q 14.63 15.75 14.63 15.94 Q 14.63 16.13 14.81 16.31 L 15.94 17.44 Q 15.56 18.00 15.00 18.00 Q 14.44 18.00 14.06 17.63 L 12.94 16.50 Q 12.56 16.13 12.56 15.56 Q 12.56 15.19 12.75 14.81 L 9.19 11.25 Q 8.81 11.44 8.44 11.44 Q 7.88 11.44 7.50 11.06 L 6.38 9.94 Q 6.00 9.56 6.00 9.00 Q 6.00 8.44 6.56 8.06 L 7.69 9.19 Q 7.88 9.38 8.06 9.38 Q 8.25 9.38 8.44 9.19 L 9.19 8.44 Q 9.38 8.25 9.38 8.06 Q 9.38 7.88 9.19 7.69 L 8.06 6.56 Z" clip-rule="evenodd"/>
</svg>