<svg xmlns="http://www.w3.org/2000/svg" width="128" height="128" viewBox="0 0 128 128" role="img" aria-label="agricultural">
  <rect width="128" height="128" fill="#000"/>
  <path
    fill="#fff"
    fill-rule="evenodd"
    d="M 34.768 108.631 L 10.732 67 A 6 6 0 0 1 10.732 61 L 34.768 19.369 A 6 6 0 0 1 39.964 16.369 L 88.036 16.369 A 6 6 0 0 1 93.232 19.369 L 117.268 61 A 6 6 0 0 1 117.268 67 L 93.232 108.631 A 6 6 0 0 1 88.036 111.631 L 39.964 111.631 A 6 6 0 0 1 34.768 108.631 Z
       M 38.232 106.631 L 14.196 65 A 2 2 0 0 1 14.196 63 L 38.232 21.369 A 2 2 0 0 1 39.964 20.369 L 88.036 20.369 A 2 2 0 0 1 89.768 21.369 L 113.804 63 A 2 2 0 0 1 113.804 65 L 89.768 106.631 A 2 2 0 0 1 88.036 107.631 L 39.964 107.631 A 2 2 0 0 1 38.232 106.631 Z
       M 82 31 L 73 40 L 51 50 L 45 56 L 42 64 L 42 70 L 45 77 L 52 69 L 70 57 L 76 51 L 79 45 L 80 48 L 77 54 L 49 80 L 42 92 L 42 94 L 44 96 L 47 95 L 51 85 L 54 83 L 67 84 L 73 82 L 78 79 L 86 70 L 89 62 L 90 52 L 88 42 Z"/>
</svg>