<svg xmlns="http://www.w3.org/2000/svg" width="128" height="128" viewBox="0 0 128 128" shape-rendering="geometricPrecision">
  <rect width="128" height="128" fill="#000"/>
  <path d="M 37 16 L 33 19 L 9 62 L 10 68 L 33 108 L 39 112 L 88 112 L 92 110 L 108 84 L 118 65 L 116 57 L 93 18 L 87 15 L 40 15 Z M 39 23 L 43 21 L 84 21 L 88 23 L 94 31 L 109 57 L 111 65 L 94 96 L 88 104 L 84 106 L 43 106 L 36 101 L 18 70 L 16 62 L 30 36 Z M 64 32 L 50 41 L 49 43 L 49 55 L 38 63 L 35 67 L 35 79 L 44 86 L 50 89 L 64 80 L 78 89 L 90 81 L 92 78 L 92 67 L 91 65 L 78 55 L 78 43 L 77 41 Z M 89 68 L 89 80 L 80 86 L 79 76 Z M 61 68 L 61 80 L 52 86 L 51 76 Z M 78 57 L 89 65 L 79 73 L 76 73 L 66 65 Z M 50 57 L 61 65 L 51 73 L 48 73 L 38 65 Z M 76 46 L 76 55 L 70 60 L 65 61 L 65 52 L 71 47 Z M 65 34 L 75 42 L 63 50 L 52 42 L 62 34 Z" fill="#fff" fill-rule="evenodd"/>
</svg>