<svg xmlns="http://www.w3.org/2000/svg" width="128" height="128" viewBox="0 0 128 128" role="img" aria-label="piratestation_headquarter">
  <path
    fill="#fff"
    fill-rule="evenodd"
    d="M 10.732 67 A 6 6 0 0 1 10.732 61 L 17.750 48.845 L 21.214 50.845 L 31.214 33.524 L 27.750 31.524 L 34.768 19.369 A 6 6 0 0 1 39.964 16.369 L 54.000 16.369 L 54.000 20.369 L 74.000 20.369 L 74.000 16.369 L 88.036 16.369 A 6 6 0 0 1 93.232 19.369 L 100.250 31.524 L 96.786 33.524 L 106.786 50.845 L 110.250 48.845 L 117.268 61.000 A 6 6 0 0 1 117.268 67.000 L 110.250 79.155 L 106.786 77.155 L 96.786 94.476 L 100.250 96.476 L 93.232 108.631 A 6 6 0 0 1 88.036 111.631 L 74.000 111.631 L 74.000 107.631 L 54.000 107.631 L 54.000 111.631 L 39.964 111.631 A 6 6 0 0 1 34.768 108.631 L 27.750 96.476 L 31.214 94.476 L 21.214 77.155 L 17.750 79.155 L 10.732 67.000 Z
       M 39.964 101.631 L 19.392 66 A 4 4 0 0 1 19.392 62 L 39.964 26.369 A 4 4 0 0 1 43.428 24.369 L 84.572 24.369 A 4 4 0 0 1 88.036 26.369 L 108.608 62 A 4 4 0 0 1 108.608 66 L 88.036 101.631 A 4 4 0 0 1 84.572 103.631 L 43.428 103.631 A 4 4 0 0 1 39.964 101.631 Z
       M 68 76 L 69 83 L 74 86 L 88 85 L 88 83 L 81 76 L 77 74 L 74 74 L 71 76 L 79 79 L 84 84 L 76 85 L 73 84 L 69 80 Z M 87 41 L 83 45 L 78 47 L 76 57 L 74 61 L 68 67 L 59 71 L 56 69 L 56 71 L 54 73 L 46 76 L 39 83 L 39 85 L 53 86 L 59 81 L 59 76 L 61 74 L 73 71 L 82 66 L 89 57 L 90 50 Z M 58 77 L 58 80 L 54 84 L 51 85 L 43 84 L 51 77 L 54 76 Z M 40 41 L 37 50 L 38 57 L 40 61 L 45 66 L 52 69 L 51 67 L 57 65 L 51 57 L 49 47 L 47 47 Z"/>
</svg>