<svg xmlns="http://www.w3.org/2000/svg" width="128" height="128" viewBox="0 0 128 128" shape-rendering="geometricPrecision">
  <path d="M 28 100 L 36 108 L 38 108 L 64 83 L 89 108 L 91 108 L 99 99 L 64 64 Z M 60 34 L 44 75 L 64 56 L 83 75 L 67 34 Z" fill="#fff"/>
  <path d="M 81.896 23.804
           A 44 44 0 0 1 100.902 87.964
           L 94.192 83.607
           A 36 36 0 0 0 78.643 31.112
           Z" fill="#fff"/>
  <path d="M 27.098 87.964
           A 44 44 0 0 1 46.104 23.804
           L 49.357 31.112
           A 36 36 0 0 0 33.808 83.607
           Z" fill="#fff"/>
</svg>
